<svg viewBox="0 0 2000 5566" fill="none" xmlns="http://www.w3.org/2000/svg">
<g clip-path="url(#clip0_556_2062)">
<rect width="2000" height="5565.97" fill="#F8E8D9"/>
<path d="M1061.92 2598.57C824.067 2404.81 220.034 2232.21 -15.0459 2243.59V3478.89C803.557 3891.15 1247.87 3888.35 2015.05 3478.89V2806.64C1771.64 2769.04 1299.78 2792.33 1061.92 2598.57Z" fill="#F5F0E7"/>
<path d="M-32.4267 -16.2142L2201.41 -17.7613C2201.41 -17.7613 2245.84 357.847 2196.55 556.4C1989.71 1389.75 -39.7761 852.875 -39.7761 852.875L-32.4267 -16.2142Z" fill="#F5F0E7"/>
<g clip-path="url(#clip1_556_2062)">
<path d="M86.2644 5289.6C481.559 4859.84 2011.66 4961.77 2091.92 5277.95C2172.17 5594.14 2172.44 5609.07 2125.08 5791.65C1876.45 6750.23 778.179 5914.77 -7.26387 6111C-792.706 6307.22 -309.03 5719.37 86.2644 5289.6Z" fill="#F5F0E7"/>
</g>
</g>
<defs>
<clipPath id="clip0_556_2062">
<rect width="2000" height="5565.97" fill="white"/>
</clipPath>
<clipPath id="clip1_556_2062">
<rect width="2314.81" height="563.657" fill="white" transform="translate(-157.407 5002.31)"/>
</clipPath>
</defs>
</svg>
